# xmcd
#
# Track frame offsets: 
#        150
#        14567
#        30445
#        39967
#        51475
#        62517
#        77865
#        91817
#        104820
#        114452
#
# Disc length: 1682 seconds
#
# Revision: 4
# Processed by: cddbd v1.5.2PL0 Copyright (c) Steve Scherf et al.
# Submitted via: ExactAudioCopy v0.99pb4
#
DISCID=7c06900a
DTITLE=Various Artist - Unforgettable Songs
DYEAR=1987
DGENRE=Swing
TTITLE0=Judy Garland - Over The Rainbow
TTITLE1=Glenn Miller - In The Mood
TTITLE2=Tony Bennett - Chicago
TTITLE3=Fats Domino - Ain't That A Shame
TTITLE4=Nat King Cole - You're The Cream In My Coffee
TTITLE5=Louis Armstrong - Mack The Knife
TTITLE6=Al Jolson - Sonny Boy
TTITLE7=Jerry Lee Lewis - Whole Lotta Shakin' Going On
TTITLE8=Diamonds - Little Darlin'
TTITLE9=Platters - The Great Pretender
EXTD=
EXTT0=
EXTT1=
EXTT2=
EXTT3=
EXTT4=
EXTT5=
EXTT6=
EXTT7=
EXTT8=
EXTT9=
PLAYORDER=
